HIERARCHY
ROOT ui
{
	 OFFSET 0 0 0
	 CHANNELS 3 XPosition YPosition Z Position
	 EndSite
	 {
	 OFFSET 0 -1 0
	 }
}
ROOT li
{
	 OFFSET 0 0 0
	 CHANNELS 3 XPosition YPosition Z Position
	 EndSite
	 {
	 OFFSET 0 -1 0
	 }
}
ROOT ul
{
	 OFFSET 0 0 0
	 CHANNELS 3 XPosition YPosition Z Position
	 EndSite
	 {
	 OFFSET 0 -1 0
	 }
}
ROOT ll
{
	 OFFSET 0 0 0
	 CHANNELS 3 XPosition YPosition Z Position
	 EndSite
	 {
	 OFFSET 0 -1 0
	 }
}
ROOT tt
{
	 OFFSET 0 0 0
	 CHANNELS 3 XPosition YPosition Z Position
	 EndSite
	 {
	 OFFSET 0 -1 0
	 }
}
ROOT tb
{
	 OFFSET 0 0 0
	 CHANNELS 3 XPosition YPosition Z Position
	 EndSite
	 {
	 OFFSET 0 -1 0
	 }
}
ROOT td
{
	 OFFSET 0 0 0
	 CHANNELS 3 XPosition YPosition Z Position
	 EndSite
	 {
	 OFFSET 0 -1 0
	 }
}
ROOT v
{
	 OFFSET 0 0 0
	 CHANNELS 3 XPosition YPosition Z Position
	 EndSite
	 {
	 OFFSET 0 -1 0
	 }
}
ROOT bn
{
	 OFFSET 0 0 0
	 CHANNELS 3 XPosition YPosition Z Position
	 EndSite
	 {
	 OFFSET 0 -1 0
	 }
}
MOTION
Frames: 19
Frame Time: 0.002
0.009148282051086426	0.004910533905029297	0		0.551638427734375	-2.388175048828125	0		-1.0203206787109376	0.2568067626953125	0		-0.455806884765625	-2.688654541015625	0		1.9843292236328125	-0.5506775512695312	0		3.521525146484375	-0.13283766174316405	0		4.66406689453125	-0.03433061218261719	0		5.9596826171875	0.44881692504882814	0		-0.16318453979492187	5.9370185546875	0		
-0.07198387908935547	0.0033081369400024415	0		0.5496405029296875	-2.38988525390625	0		-1.0204315185546875	0.25698333740234375	0		-0.46460089111328123	-2.6773193359375	0		1.981420166015625	-0.5392981567382813	0		3.52552099609375	-0.12647626495361328	0		4.68395556640625	-0.03513760375976562	0		5.959408203125	0.4151757202148437	0		-0.2969165649414062	5.9161572265625	0		
0.0018697589635848998	-0.0015282989740371703	0		0.547669677734375	-2.39259326171875	0		-1.0255860595703126	0.2532178955078125	0		-0.46348196411132814	-2.6751357421875	0		2.00050048828125	-0.5302163696289063	0		3.534418212890625	-0.12815106201171875	0		4.67387744140625	-0.034466129302978515	0		5.95222998046875	0.41821295166015626	0		-0.17921723937988282	5.92667431640625	0		
0.0018109740018844604	-0.0013056199550628663	0		0.49993487548828125	-2.381647216796875	0		-1.0955994873046875	0.25836199951171873	0		-0.44637356567382813	-2.677189453125	0		2.019621337890625	-0.520117919921875	0		3.54835302734375	-0.12886697387695312	0		4.68381982421875	-0.034041004180908205	0		5.955845703125	0.43480801391601565	0		-0.3660226745605469	5.906537109375	0		
0.0058271150588989256	0.0018524069786071777	0		0.556099609375	-2.3821845703125	0		-1.01659814453125	0.26136663818359374	0		-0.4838916320800781	-2.65647509765625	0		1.9749119873046874	-0.5001007385253906	0		3.53072216796875	-0.10110713958740235	0		4.6909658203125	-0.021540281295776367	0		5.95582763671875	0.43603475952148435	0		-0.18022860717773437	5.927083984375	0		
0.008900527000427247	0.006015151023864746	0		0.5323898315429687	-2.37759228515625	0		-1.0166040649414063	0.26148016357421877	0		-0.447653076171875	-2.6578203125	0		2.0041405029296877	-0.48812796020507815	0		3.557788330078125	-0.09796556091308593	0		4.6879013671875	-0.02687116050720215	0		5.95930615234375	0.41990057373046874	0		-0.31405419921875	5.9061474609375	0		
0.0018734560012817383	-6.933109760284424E-4	0		0.5477426147460938	-2.373559326171875	0		-1.0206138916015626	0.25763128662109375	0		-0.49012796020507815	-2.643071044921875	0		1.983651611328125	-0.45945306396484376	0		3.565021484375	-0.0865318374633789	0		4.68617041015625	-0.01220368194580078	0		5.967203125	0.4209601440429688	0		-0.20954515075683594	5.9058408203125	0		
0.002005553960800171	-5.17126977443695E-4	0		0.5142954711914063	-2.359857666015625	0		-1.020507568359375	0.25770538330078124	0		-0.46463723754882813	-2.6362919921875	0		2.0099241943359374	-0.452440673828125	0		3.546275146484375	-0.07773683166503906	0		4.6932197265625	-0.017656396865844727	0		5.9523310546875	0.42453692626953127	0		-0.3291440734863281	5.8966494140625	0		
0.01206718635559082	-0.010497412681579589	0		0.5355415649414063	-2.37393701171875	0		-1.0753558349609376	0.2565159301757812	0		-0.483179931640625	-2.6369208984375	0		1.981380126953125	-0.4366809997558594	0		3.554634033203125	-0.06633001708984375	0		4.7013935546875	-0.0191313533782959	0		5.95247509765625	0.42586422729492185	0		-0.3446953735351562	5.88597998046875	0		
0.020328018188476564	-0.011471410751342774	0		0.5063076782226562	-2.35533935546875	0		-1.0700537109375	0.26047125244140623	0		-0.4735	-2.626960205078125	0		2.014914794921875	-0.420797119140625	0		3.586857421875	-0.0702696533203125	0		4.7098330078125	-0.006626830101013183	0		5.9599892578125	0.45978640747070315	0		-0.3279154968261719	5.893845703125	0		
0.0099254207611084	0.006789192199707032	0		0.5519736938476563	-2.3497890625	0		-1.0697291259765624	0.2604739990234375	0		-0.481733642578125	-2.615776123046875	0		1.9965406494140625	-0.403226318359375	0		3.56648876953125	-0.049513160705566404	0		4.71529296875	0.0018911360502243042	0		5.9529228515625	0.42839450073242186	0		-0.21098075866699217	5.9063330078125	0		
0.003257826089859009	-2.6979999616742134E-5	0		0.5485642700195312	-2.354592529296875	0		-1.0053202514648438	0.2605938720703125	0		-0.44709344482421876	-2.619193603515625	0		2.0041143798828127	-0.3950374755859375	0		3.57182568359375	-0.05614180755615234	0		4.711638671875	-0.0035034410953521727	0		5.95322802734375	0.4295640869140625	0		-0.359552001953125	5.8763984375	0		
0.003757395029067993	3.872900083661079E-5	0		0.5513113403320312	-2.352502685546875	0		-1.068852783203125	0.2604218444824219	0		-0.4891568298339844	-2.604595703125	0		2.0148240966796873	-0.3819190673828125	0		3.576410400390625	-0.049795330047607424	0		4.71621875	0.002949989080429077	0		5.9535849609375	0.4306495666503906	0		-0.37374984741210937	5.8656181640625	0		
0.004324915885925293	8.231599628925323E-5	0		0.5541259155273438	-2.3494375	0		-0.9933148803710937	0.2593734436035156	0		-0.4394572448730469	-2.61224658203125	0		2.0296634521484376	-0.36388604736328123	0		3.5751552734375	-0.0364114990234375	0		4.7167861328125	0.003408801078796387	0		5.9426748046875	0.44930410766601564	0		-0.3936308898925781	5.87089404296875	0		
0.01787388038635254	-0.0060672578811645506	0		0.5070703125	-2.3397373046875	0		-1.0636475830078125	0.2642518310546875	0		-0.46749301147460937	-2.602878662109375	0		2.0445592041015623	-0.34588552856445315	0		3.5821044921875	-0.012179550170898437	0		4.7314931640625	0.00962981414794922	0		5.95025537109375	0.4499565734863281	0		-0.3594045715332031	5.87643359375	0		
0.009676671028137207	0.003051692962646484	0		0.55300439453125	-2.334291015625	0		-0.9879906005859375	0.263186279296875	0		-0.438485107421875	-2.593282470703125	0		2.0554384765625	-0.3328643493652344	0		3.600734619140625	-0.0161464900970459	0		4.73035986328125	0.02401054763793945	0		5.95492822265625	0.4332999572753906	0		-0.24002861022949218	5.885841796875	0		
0.010402777671813964	0.0030320920944213866	0		0.5160121459960938	-2.324777099609375	0		-1.0622760009765626	0.2640786437988281	0		-0.48343270874023436	-2.581732421875	0		2.02738623046875	-0.3173653869628906	0		3.614630859375	-0.0030901949405670167	0		4.73800537109375	0.018224597930908203	0		5.9625693359375	0.43202178955078124	0		-0.23970709228515624	5.8858046875	0		
0.004067831993103027	-0.003915342092514038	0		0.5428713989257813	-2.328122802734375	0		-0.9865430297851563	0.2629968566894531	0		-0.4825162353515625	-2.58180224609375	0		2.02751318359375	-0.2902681884765625	0		3.605465576171875	0.0032247169017791746	0		4.742837890625	0.024427291870117187	0		5.955986328125	0.4345545349121094	0		-0.37259283447265623	5.865482421875	0		
0.007888903141021728	-1.2833000160753727E-5	0		0.5047987060546875	-2.325646240234375	0		-1.0497958984375	0.26271304321289063	0		-0.5114978942871093	-2.57349951171875	0		2.05434814453125	-0.28655169677734377	0		3.58733984375	0.011611242294311524	0		4.73463232421875	0.02674770164489746	0		5.95843408203125	0.3899837036132813	0		-0.3910947265625	5.8696494140625	0		
